<svg xmlns="http://www.w3.org/2000/svg" viewBox="0 0 240.62 240.62"><defs><style>.cls-1{fill:#d8e400;}</style></defs><title>c-yellow</title><g id="Capa_2" data-name="Capa 2"><g id="Capa_2-2" data-name="Capa 2"><path class="cls-1" d="M240.62,120.31A120.31,120.31,0,0,1,35.24,205.39,120.31,120.31,0,0,1,28.93,42.06a4,4,0,0,1,2.77-1.41H32a4.06,4.06,0,0,1,3.08,6.71,111.94,111.94,0,1,0,38.46-29,4,4,0,0,1-3.1.11,4.06,4.06,0,0,1-2.4-5.22,4,4,0,0,1,2.12-2.28A120.32,120.32,0,0,1,240.62,120.31Z"/></g></g></svg>