<svg xmlns="http://www.w3.org/2000/svg" viewBox="0 0 746.01 110.31"><defs><style>.cls-1{fill:#fff;}</style></defs><title>frase</title><g id="Capa_2" data-name="Capa 2"><g id="Capa_1-2" data-name="Capa 1"><path class="cls-1" d="M111.39,72h16.06v4.21H106.37v-37h5Z"/><path class="cls-1" d="M140.45,41.78a2.93,2.93,0,0,1-.27,1.25,4,4,0,0,1-.73,1,3.3,3.3,0,0,1-1,.71,3.21,3.21,0,0,1-1.27.26,3.07,3.07,0,0,1-1.25-.26,3.37,3.37,0,0,1-1-.71,3.5,3.5,0,0,1-.71-1,3.07,3.07,0,0,1-.26-1.25,3.33,3.33,0,0,1,1-2.34,3.37,3.37,0,0,1,1-.71,2.92,2.92,0,0,1,1.25-.26,3,3,0,0,1,1.27.26,3.3,3.3,0,0,1,1,.71,3.64,3.64,0,0,1,.73,1.06A3.09,3.09,0,0,1,140.45,41.78Zm-1,8.22V76.19H134.8V50Z"/><path class="cls-1" d="M150.65,76.19V53.93l-2.9-.33a2.22,2.22,0,0,1-.89-.41.91.91,0,0,1-.35-.78V50.52h4.14V48a11.44,11.44,0,0,1,.64-4,8,8,0,0,1,1.81-3,7.62,7.62,0,0,1,2.83-1.82,10.46,10.46,0,0,1,3.73-.62,9.88,9.88,0,0,1,3.27.52l-.11,2.3a.59.59,0,0,1-.44.62,5,5,0,0,1-1.16.1h-.81a7,7,0,0,0-2.16.31,4.08,4.08,0,0,0-1.67,1,4.51,4.51,0,0,0-1.07,1.83,9.11,9.11,0,0,0-.38,2.82v2.41h7.59v3.33h-7.43V76.19Z"/><path class="cls-1" d="M178.64,49.59a11.64,11.64,0,0,1,4.35.79,9.74,9.74,0,0,1,3.45,2.27,10.44,10.44,0,0,1,2.26,3.67,14.06,14.06,0,0,1,.82,5,3.09,3.09,0,0,1-.23,1.45,1,1,0,0,1-.88.36H171a14.44,14.44,0,0,0,.68,4.32,8.85,8.85,0,0,0,1.7,3.06,7,7,0,0,0,2.59,1.84,9,9,0,0,0,3.37.61,10.11,10.11,0,0,0,3-.4,14.22,14.22,0,0,0,2.16-.87A15.72,15.72,0,0,0,186,70.8a2,2,0,0,1,1-.4,1,1,0,0,1,.88.44l1.29,1.68a8.85,8.85,0,0,1-2,1.8,12.57,12.57,0,0,1-2.55,1.25,15.92,15.92,0,0,1-2.81.74,17.7,17.7,0,0,1-2.88.25,13.41,13.41,0,0,1-5-.92,10.93,10.93,0,0,1-4-2.69,12.35,12.35,0,0,1-2.6-4.38,17.82,17.82,0,0,1-.94-6,15,15,0,0,1,.85-5.12,12,12,0,0,1,2.42-4.13,11.24,11.24,0,0,1,3.86-2.74A12.67,12.67,0,0,1,178.64,49.59Zm.11,3.38a7.11,7.11,0,0,0-5.26,1.93,9,9,0,0,0-2.38,5.34h14.27a9.34,9.34,0,0,0-.44-2.93,6.7,6.7,0,0,0-1.3-2.31,5.94,5.94,0,0,0-2.08-1.5A7.11,7.11,0,0,0,178.75,53Z"/><path class="cls-1" d="M197.42,76.19V50h2.64a1.49,1.49,0,0,1,1,.28,1.76,1.76,0,0,1,.39,1l.31,4.08a12.13,12.13,0,0,1,3.33-4.28,7.39,7.39,0,0,1,4.65-1.53,7.54,7.54,0,0,1,2,.24,7,7,0,0,1,1.63.69l-.6,3.44a.77.77,0,0,1-.8.64,4.11,4.11,0,0,1-1.11-.24,6.82,6.82,0,0,0-2.1-.25,6,6,0,0,0-4,1.4,10.37,10.37,0,0,0-2.7,4.06V76.19Z"/><path class="cls-1" d="M239.21,76.19h-2a2.44,2.44,0,0,1-1.09-.2,1.12,1.12,0,0,1-.54-.88L235,72.68c-.69.62-1.37,1.17-2,1.67a12.2,12.2,0,0,1-2.07,1.24,11.07,11.07,0,0,1-2.32.76,13.46,13.46,0,0,1-2.73.26,9.12,9.12,0,0,1-2.86-.43,6.39,6.39,0,0,1-2.32-1.28,6.09,6.09,0,0,1-1.57-2.16,7.51,7.51,0,0,1-.58-3.09,5.72,5.72,0,0,1,.85-3,7.47,7.47,0,0,1,2.76-2.55,17.88,17.88,0,0,1,5-1.82,37.52,37.52,0,0,1,7.53-.82v-2a7.07,7.07,0,0,0-1.31-4.62,4.76,4.76,0,0,0-3.87-1.56,8,8,0,0,0-2.83.43,10.66,10.66,0,0,0-2,1c-.56.36-1,.67-1.45,1A2.1,2.1,0,0,1,222,56a1.44,1.44,0,0,1-.82-.25,1.78,1.78,0,0,1-.55-.61l-.83-1.47a15,15,0,0,1,4.68-3.13,14.5,14.5,0,0,1,5.57-1,10,10,0,0,1,3.91.72,7.94,7.94,0,0,1,2.88,2,8.62,8.62,0,0,1,1.76,3.13,13.16,13.16,0,0,1,.59,4Zm-12-2.81a9.69,9.69,0,0,0,2.23-.25,8.81,8.81,0,0,0,1.9-.7,10.13,10.13,0,0,0,1.71-1.1,15.38,15.38,0,0,0,1.59-1.47V64.4a37.75,37.75,0,0,0-5.41.51,15.48,15.48,0,0,0-3.63,1,5.08,5.08,0,0,0-2,1.53,3.3,3.3,0,0,0-.63,2,4.38,4.38,0,0,0,.33,1.78,3.47,3.47,0,0,0,.91,1.23,3.62,3.62,0,0,0,1.35.7A6.32,6.32,0,0,0,227.25,73.38Z"/><path class="cls-1" d="M255.29,83.93a2.32,2.32,0,0,1-.58.82,1.55,1.55,0,0,1-1.07.31h-3.42L255,74.67,244.18,50h4a1.33,1.33,0,0,1,.93.3,1.93,1.93,0,0,1,.5.66l7,16.49c.16.38.29.76.41,1.14s.21.77.29,1.17c.12-.4.25-.79.37-1.17s.26-.76.41-1.16L264.9,51a1.44,1.44,0,0,1,.53-.69,1.37,1.37,0,0,1,.82-.27h3.67Z"/><path class="cls-1" d="M310.5,39.14v4.09H292.69v12.3h14.42v3.93H292.69V72.11H310.5v4.08H287.64v-37Z"/><path class="cls-1" d="M325.16,62.77,316.33,50h4.43a1.5,1.5,0,0,1,.83.18,1.7,1.7,0,0,1,.46.52l6.42,9.82a6.7,6.7,0,0,1,.68-1.44l5.64-8.28a3.36,3.36,0,0,1,.52-.58A1,1,0,0,1,336,50h4.24l-8.83,12.52,9.2,13.67h-4.43a1.24,1.24,0,0,1-.89-.29,2.79,2.79,0,0,1-.54-.66L328.11,65a4.77,4.77,0,0,1-.54,1.35l-6.11,8.92a6.08,6.08,0,0,1-.56.66,1.1,1.1,0,0,1-.82.29H316Z"/><path class="cls-1" d="M347.2,85.06V50h2.74a1.17,1.17,0,0,1,1.24,1l.39,3.1a13.9,13.9,0,0,1,3.85-3.28,9.79,9.79,0,0,1,5-1.24,9.39,9.39,0,0,1,4.09.86A8.49,8.49,0,0,1,367.63,53a12.23,12.23,0,0,1,2,4.2,21.46,21.46,0,0,1,.7,5.77,18,18,0,0,1-.78,5.39,13.18,13.18,0,0,1-2.22,4.32A10.33,10.33,0,0,1,359,76.56a9.69,9.69,0,0,1-4.15-.81,9.29,9.29,0,0,1-3-2.27V85.06Zm11.68-31.8a7.41,7.41,0,0,0-3.95,1,11.27,11.27,0,0,0-3.12,2.93V69.89a7.45,7.45,0,0,0,2.78,2.4A7.92,7.92,0,0,0,358,73a6.62,6.62,0,0,0,5.62-2.61c1.31-1.74,2-4.23,2-7.45a18.18,18.18,0,0,0-.46-4.4,8.61,8.61,0,0,0-1.3-3,5.11,5.11,0,0,0-2.1-1.72A7,7,0,0,0,358.88,53.26Z"/><path class="cls-1" d="M388.19,49.59a11.64,11.64,0,0,1,4.35.79A9.61,9.61,0,0,1,396,52.65a10.32,10.32,0,0,1,2.27,3.67,14.29,14.29,0,0,1,.81,5,3,3,0,0,1-.23,1.45,1,1,0,0,1-.88.36H380.5a14.46,14.46,0,0,0,.67,4.32,9,9,0,0,0,1.71,3.06,7,7,0,0,0,2.59,1.84,9,9,0,0,0,3.37.61,10.16,10.16,0,0,0,3-.4,15.12,15.12,0,0,0,2.16-.87,15.43,15.43,0,0,0,1.51-.87,2.1,2.1,0,0,1,1.05-.4,1,1,0,0,1,.88.44l1.3,1.68a8.7,8.7,0,0,1-2.05,1.8,12.07,12.07,0,0,1-2.55,1.25,15.48,15.48,0,0,1-2.81.74,17.48,17.48,0,0,1-2.87.25,13.33,13.33,0,0,1-5-.92,10.93,10.93,0,0,1-4-2.69,12.22,12.22,0,0,1-2.61-4.38,17.83,17.83,0,0,1-.93-6,15.23,15.23,0,0,1,.84-5.12,12.14,12.14,0,0,1,2.42-4.13,11.34,11.34,0,0,1,3.86-2.74A12.76,12.76,0,0,1,388.19,49.59Zm.1,3.38A7.08,7.08,0,0,0,383,54.9a9,9,0,0,0-2.39,5.34h14.27a9.06,9.06,0,0,0-.44-2.93A6.52,6.52,0,0,0,393.19,55a6,6,0,0,0-2.09-1.5A7.08,7.08,0,0,0,388.29,53Z"/><path class="cls-1" d="M407,76.19V50h2.64a1.52,1.52,0,0,1,1,.28,1.76,1.76,0,0,1,.39,1l.31,4.08a12.13,12.13,0,0,1,3.33-4.28,7.91,7.91,0,0,1,6.61-1.29,6.77,6.77,0,0,1,1.63.69l-.59,3.44a.77.77,0,0,1-.8.64,4.08,4.08,0,0,1-1.12-.24,6.82,6.82,0,0,0-2.1-.25,6,6,0,0,0-4,1.4,10.49,10.49,0,0,0-2.71,4.06V76.19Z"/><path class="cls-1" d="M436,41.78a2.93,2.93,0,0,1-.27,1.25,3.76,3.76,0,0,1-.73,1,3.3,3.3,0,0,1-1,.71,3.17,3.17,0,0,1-1.27.26,3.07,3.07,0,0,1-1.25-.26,3.37,3.37,0,0,1-1-.71,3.5,3.5,0,0,1-.71-1,3.07,3.07,0,0,1-.26-1.25,3.33,3.33,0,0,1,1-2.34,3.37,3.37,0,0,1,1-.71,2.92,2.92,0,0,1,1.25-.26,3,3,0,0,1,1.27.26,3.3,3.3,0,0,1,1,.71,3.45,3.45,0,0,1,.73,1.06A3.09,3.09,0,0,1,436,41.78ZM435,50V76.19h-4.61V50Z"/><path class="cls-1" d="M455.57,49.59a11.64,11.64,0,0,1,4.35.79,9.61,9.61,0,0,1,3.44,2.27,10.32,10.32,0,0,1,2.27,3.67,14.29,14.29,0,0,1,.82,5,2.94,2.94,0,0,1-.24,1.45,1,1,0,0,1-.88.36H447.88a14.46,14.46,0,0,0,.67,4.32,9,9,0,0,0,1.71,3.06,7,7,0,0,0,2.59,1.84,9,9,0,0,0,3.37.61,10.16,10.16,0,0,0,3-.4,14.65,14.65,0,0,0,2.16-.87,15.43,15.43,0,0,0,1.51-.87,2.1,2.1,0,0,1,1.05-.4,1,1,0,0,1,.88.44l1.3,1.68a8.7,8.7,0,0,1-2.05,1.8,12.07,12.07,0,0,1-2.55,1.25,15.48,15.48,0,0,1-2.81.74,17.48,17.48,0,0,1-2.87.25,13.41,13.41,0,0,1-5-.92,10.93,10.93,0,0,1-4-2.69,12.22,12.22,0,0,1-2.61-4.38,17.83,17.83,0,0,1-.93-6,15.23,15.23,0,0,1,.84-5.12,12.14,12.14,0,0,1,2.42-4.13,11.34,11.34,0,0,1,3.86-2.74A12.76,12.76,0,0,1,455.57,49.59Zm.1,3.38a7.08,7.08,0,0,0-5.25,1.93A9,9,0,0,0,448,60.24H462.3a9.06,9.06,0,0,0-.44-2.93A6.52,6.52,0,0,0,460.57,55a6,6,0,0,0-2.09-1.5A7.08,7.08,0,0,0,455.67,53Z"/><path class="cls-1" d="M474.34,76.19V50h2.75a1.17,1.17,0,0,1,1.24,1l.36,2.84a14.92,14.92,0,0,1,3.82-3,9.92,9.92,0,0,1,4.88-1.16,9.4,9.4,0,0,1,3.8.71,7.29,7.29,0,0,1,2.74,2,8.87,8.87,0,0,1,1.67,3.15,13.6,13.6,0,0,1,.57,4.06V76.19h-4.61V59.52a7,7,0,0,0-1.36-4.62,5.08,5.08,0,0,0-4.15-1.64,7.79,7.79,0,0,0-3.82,1A12.55,12.55,0,0,0,479,56.9V76.19Z"/><path class="cls-1" d="M523.1,54.66a1.7,1.7,0,0,1-.41.43,1,1,0,0,1-.6.16,1.53,1.53,0,0,1-.84-.32,9.48,9.48,0,0,0-1.15-.71,9.87,9.87,0,0,0-1.7-.72,8.16,8.16,0,0,0-2.44-.32,8,8,0,0,0-3.4.69,6.57,6.57,0,0,0-2.47,2,9.2,9.2,0,0,0-1.5,3.13,15.43,15.43,0,0,0-.5,4.11,15.08,15.08,0,0,0,.54,4.23,9,9,0,0,0,1.53,3.1,6.44,6.44,0,0,0,2.39,1.92,7.4,7.4,0,0,0,3.17.66,8.35,8.35,0,0,0,2.78-.4,9.25,9.25,0,0,0,1.81-.89,13.48,13.48,0,0,0,1.19-.9,1.47,1.47,0,0,1,.93-.4,1,1,0,0,1,.88.44l1.3,1.68a10,10,0,0,1-4.28,3.07,15.3,15.3,0,0,1-5.41,1,11.54,11.54,0,0,1-4.57-.91A10.35,10.35,0,0,1,506.69,73a12.52,12.52,0,0,1-2.45-4.23,16.88,16.88,0,0,1-.89-5.72,17.36,17.36,0,0,1,.81-5.4,12.47,12.47,0,0,1,2.38-4.28,10.78,10.78,0,0,1,3.88-2.8,12.89,12.89,0,0,1,5.28-1,12.41,12.41,0,0,1,4.87.89A11.58,11.58,0,0,1,524.32,53Z"/><path class="cls-1" d="M541.39,49.59a11.64,11.64,0,0,1,4.35.79,9.7,9.7,0,0,1,3.44,2.27,10.46,10.46,0,0,1,2.27,3.67,14.29,14.29,0,0,1,.81,5,3,3,0,0,1-.23,1.45,1,1,0,0,1-.88.36H533.7a14.15,14.15,0,0,0,.67,4.32,8.71,8.71,0,0,0,1.71,3.06,6.87,6.87,0,0,0,2.59,1.84,9,9,0,0,0,3.36.61,10.18,10.18,0,0,0,3-.4,15.12,15.12,0,0,0,2.16-.87,15.43,15.43,0,0,0,1.51-.87,2.1,2.1,0,0,1,1-.4,1,1,0,0,1,.88.44l1.3,1.68a8.9,8.9,0,0,1-2,1.8,12.07,12.07,0,0,1-2.55,1.25,15.7,15.7,0,0,1-2.81.74,17.67,17.67,0,0,1-2.87.25,13.42,13.42,0,0,1-5-.92,11.1,11.1,0,0,1-4-2.69,12.35,12.35,0,0,1-2.6-4.38,17.83,17.83,0,0,1-.93-6,15.23,15.23,0,0,1,.84-5.12,12.14,12.14,0,0,1,2.42-4.13,11.24,11.24,0,0,1,3.86-2.74A12.76,12.76,0,0,1,541.39,49.59Zm.1,3.38a7.11,7.11,0,0,0-5.26,1.93,9.08,9.08,0,0,0-2.38,5.34h14.27a9.34,9.34,0,0,0-.44-2.93,6.54,6.54,0,0,0-1.3-2.31,5.94,5.94,0,0,0-2.08-1.5A7.11,7.11,0,0,0,541.49,53Z"/><path class="cls-1" d="M575.18,54.32a1,1,0,0,1-1,.57,1.82,1.82,0,0,1-.88-.29q-.5-.29-1.2-.63a11.93,11.93,0,0,0-1.7-.65,8.37,8.37,0,0,0-2.33-.29,7.15,7.15,0,0,0-2.1.29,5,5,0,0,0-1.59.82,3.49,3.49,0,0,0-1,1.2,3.27,3.27,0,0,0-.35,1.49,2.47,2.47,0,0,0,.58,1.68,5.19,5.19,0,0,0,1.54,1.16,13.38,13.38,0,0,0,2.18.87c.81.25,1.64.51,2.5.8s1.69.6,2.5.94a9.19,9.19,0,0,1,2.17,1.3,5.71,5.71,0,0,1,1.54,1.9,5.79,5.79,0,0,1,.59,2.7,8.59,8.59,0,0,1-.65,3.35,7.29,7.29,0,0,1-1.92,2.66A9.18,9.18,0,0,1,571,76a12.87,12.87,0,0,1-4.25.65,13.33,13.33,0,0,1-5-.89A12.59,12.59,0,0,1,558,73.43l1.08-1.76a1.66,1.66,0,0,1,.5-.52,1.34,1.34,0,0,1,.75-.18,1.75,1.75,0,0,1,1,.36c.35.24.76.51,1.26.8a9,9,0,0,0,1.78.81,8.22,8.22,0,0,0,2.63.36,7.33,7.33,0,0,0,2.36-.35A5,5,0,0,0,571,72a3.87,3.87,0,0,0,1-1.37,4.38,4.38,0,0,0,.32-1.66,2.76,2.76,0,0,0-.58-1.8A4.87,4.87,0,0,0,570.21,66a12.33,12.33,0,0,0-2.19-.88c-.82-.25-1.66-.51-2.51-.79s-1.69-.59-2.51-.94A8.92,8.92,0,0,1,560.81,62a6,6,0,0,1-1.54-2,6.4,6.4,0,0,1-.59-2.86,7.09,7.09,0,0,1,2.44-5.31A8.83,8.83,0,0,1,564,50.21a11.61,11.61,0,0,1,4-.62,12.67,12.67,0,0,1,4.65.81,11,11,0,0,1,3.56,2.24Z"/><path class="cls-1" d="M620.32,39.14v4.09H602.5v13h15.23v4.09H602.5V76.19h-5v-37Z"/><path class="cls-1" d="M636.5,49.59a13.6,13.6,0,0,1,5.19.95,11,11,0,0,1,3.94,2.72,11.86,11.86,0,0,1,2.48,4.25,18.33,18.33,0,0,1,0,11.16,11.9,11.9,0,0,1-2.48,4.24,10.83,10.83,0,0,1-3.94,2.7,14.65,14.65,0,0,1-10.38,0,11,11,0,0,1-3.95-2.7,12,12,0,0,1-2.51-4.24,18.13,18.13,0,0,1,0-11.16,11.92,11.92,0,0,1,2.51-4.25,11.12,11.12,0,0,1,3.95-2.72A13.6,13.6,0,0,1,636.5,49.59Zm0,23.37a6.72,6.72,0,0,0,5.8-2.6,12,12,0,0,0,1.92-7.25q0-4.68-1.92-7.29a6.73,6.73,0,0,0-5.8-2.61,8.06,8.06,0,0,0-3.42.67,6.36,6.36,0,0,0-2.42,1.94,8.53,8.53,0,0,0-1.45,3.11,16.73,16.73,0,0,0-.48,4.18,16.45,16.45,0,0,0,.48,4.16,8.35,8.35,0,0,0,1.45,3.09,6.43,6.43,0,0,0,2.42,1.93A8.06,8.06,0,0,0,636.5,73Z"/><path class="cls-1" d="M656.75,76.19V50h2.64a1.52,1.52,0,0,1,1,.28,1.76,1.76,0,0,1,.39,1l.31,4.08a12,12,0,0,1,3.32-4.28,7.41,7.41,0,0,1,4.65-1.53,7.49,7.49,0,0,1,2,.24,6.77,6.77,0,0,1,1.63.69l-.59,3.44a.78.78,0,0,1-.81.64,4.11,4.11,0,0,1-1.11-.24,6.82,6.82,0,0,0-2.1-.25,5.93,5.93,0,0,0-4,1.4,10.49,10.49,0,0,0-2.71,4.06V76.19Z"/><path class="cls-1" d="M683.63,50V66.7A7,7,0,0,0,685,71.31a5.15,5.15,0,0,0,4.15,1.63,7.91,7.91,0,0,0,3.8-1,12,12,0,0,0,3.29-2.66V50h4.61V76.19h-2.74a1.18,1.18,0,0,1-1.25-1l-.36-2.82a14.55,14.55,0,0,1-3.83,3,10.15,10.15,0,0,1-4.87,1.15A9.52,9.52,0,0,1,684,75.9a7.47,7.47,0,0,1-2.76-2,8.32,8.32,0,0,1-1.67-3.13A13.93,13.93,0,0,1,679,66.7V50Z"/><path class="cls-1" d="M710.46,76.19V50h2.74a1.19,1.19,0,0,1,1.25,1l.33,2.69A13.57,13.57,0,0,1,718,50.72a7.74,7.74,0,0,1,4.18-1.13,6.25,6.25,0,0,1,4.32,1.47,8.38,8.38,0,0,1,2.37,4,8.32,8.32,0,0,1,1.43-2.45,8.54,8.54,0,0,1,2-1.71,8.19,8.19,0,0,1,2.37-1,10.47,10.47,0,0,1,2.55-.31,9.71,9.71,0,0,1,3.69.66,7.43,7.43,0,0,1,2.75,1.92,8.72,8.72,0,0,1,1.72,3.12,14,14,0,0,1,.59,4.23V76.19H741.4V59.52a7.05,7.05,0,0,0-1.34-4.67,4.84,4.84,0,0,0-3.91-1.59,5.89,5.89,0,0,0-2.17.4,5.13,5.13,0,0,0-1.79,1.18A5.34,5.34,0,0,0,731,56.79a7.37,7.37,0,0,0-.46,2.73V76.19h-4.61V59.52a7.3,7.3,0,0,0-1.27-4.71,4.51,4.51,0,0,0-3.7-1.55,5.85,5.85,0,0,0-3.17.92,10.25,10.25,0,0,0-2.68,2.49V76.19Z"/><path class="cls-1" d="M67.38,11.55A39.48,39.48,0,0,0,0,39.42,39,39,0,0,0,12.15,67.86s0,.06.08.11a53.31,53.31,0,0,1,9.63,15.64c0,.07.05.12.07.19a32.83,32.83,0,0,1,2.32,11.67.88.88,0,0,0,0,.27c.12,2.37,2.21,4.45,5.49,5.82a9.77,9.77,0,0,0,19.44,0c3.21-1.37,5.27-3.41,5.42-5.77a.86.86,0,0,0,0-.28c0-13,9.5-24.63,11.6-27,.15-.12.27-.23.4-.35a1,1,0,0,0,.26-.37,39.37,39.37,0,0,0,.44-56.15M39.5,78.89a39.25,39.25,0,0,0,20.16-5.52c-3.43,5.35-7.28,13.25-7.34,21.9a.86.86,0,0,0,0,.22c0,1.22-1.17,2.48-3.17,3.5-.35.17-.71.34-1.12.5a11.31,11.31,0,0,1-1.12.4,24.84,24.84,0,0,1-7.42,1,24.84,24.84,0,0,1-7.36-1c-.41-.12-.78-.25-1.14-.39s-.77-.33-1.11-.51c-2-1-3.23-2.3-3.23-3.54a1,1,0,0,0,0-.23,32.92,32.92,0,0,0-1.14-8.15c3.4,2,8.44,3.22,14,3.22a1.17,1.17,0,0,0,1.18-1.18A1.18,1.18,0,0,0,39.47,88c-7,0-13.36-2.16-15.36-5.12a55.58,55.58,0,0,0-10-16.32,1.53,1.53,0,0,0-.16-.22A36.62,36.62,0,0,1,2.34,39.42a37.12,37.12,0,0,1,74.24,0A36.66,36.66,0,0,1,65,66.29a1,1,0,0,0-.18.22c-.06.08-.16.17-.26.29A37,37,0,0,1,39.5,76.55a1.17,1.17,0,0,0-1.18,1.17,1.19,1.19,0,0,0,1.18,1.17m0,29.09a7.41,7.41,0,0,1-7.17-5.57,27.69,27.69,0,0,0,7.14.88,27.36,27.36,0,0,0,7.21-.9A7.44,7.44,0,0,1,39.5,108"/><path class="cls-1" d="M39.5,65.13A1.19,1.19,0,0,0,40.68,64V43.62a1.18,1.18,0,0,0-.36-.82,1.06,1.06,0,0,0-.82-.34H23.12L39.47,26.14l18.32,18.3a1.18,1.18,0,0,0,1.67,0,1.2,1.2,0,0,0,0-1.67L40.3,23.65a1.22,1.22,0,0,0-1.67,0L19.44,42.82a1.18,1.18,0,0,0-.26,1.27,1.21,1.21,0,0,0,1.1.74h18V64a1.19,1.19,0,0,0,1.18,1.17"/></g></g></svg>