<?xml version="1.0" encoding="utf-8"?>
<!-- Generator: Adobe Illustrator 23.0.3, SVG Export Plug-In . SVG Version: 6.00 Build 0)  -->
<svg version="1.1" id="artwork" xmlns="http://www.w3.org/2000/svg" xmlns:xlink="http://www.w3.org/1999/xlink" x="0px" y="0px"
	 viewBox="0 0 313 102" style="enable-background:new 0 0 313 102;" xml:space="preserve">
<style type="text/css">
	.st0{fill:#FFFFFF;}
</style>
<path class="st0" d="M74,24H28c-2.2,0-4,1.8-4,4v46c0,2.2,1.8,4,4,4h46c2.2,0,4-1.8,4-4V28C78,25.8,76.2,24,74,24z M40,59
	c0,0.6-0.4,1-1,1h-6c-0.6,0-1-0.4-1-1v-6c0-0.6,0.4-1,1-1h6c0.6,0,1,0.4,1,1V59z M40,49c0,0.6-0.4,1-1,1h-6c-0.6,0-1-0.4-1-1v-6
	c0-0.6,0.4-1,1-1h6c0.6,0,1,0.4,1,1V49z M40,39c0,0.6-0.4,1-1,1h-6c-0.6,0-1-0.4-1-1v-6c0-0.6,0.4-1,1-1h6c0.6,0,1,0.4,1,1V39z
	 M50,69c0,0.6-0.4,1-1,1h-6c-0.6,0-1-0.4-1-1v-6c0-0.6,0.4-1,1-1h6c0.6,0,1,0.4,1,1V69z M50,49c0,0.6-0.4,1-1,1h-6c-0.6,0-1-0.4-1-1
	v-6c0-0.6,0.4-1,1-1h6c0.6,0,1,0.4,1,1V49z M50,39c0,0.6-0.4,1-1,1h-6c-0.6,0-1-0.4-1-1v-6c0-0.6,0.4-1,1-1h6c0.6,0,1,0.4,1,1V39z
	 M60,69c0,0.6-0.4,1-1,1h-6c-0.6,0-1-0.4-1-1v-6c0-0.6,0.4-1,1-1h6c0.6,0,1,0.4,1,1V69z M60,59c0,0.6-0.4,1-1,1h-6c-0.6,0-1-0.4-1-1
	v-6c0-0.6,0.4-1,1-1h6c0.6,0,1,0.4,1,1V59z M60,39c0,0.6-0.4,1-1,1h-6c-0.6,0-1-0.4-1-1v-6c0-0.6,0.4-1,1-1h6c0.6,0,1,0.4,1,1V39z
	 M70,69c0,0.6-0.4,1-1,1h-6c-0.6,0-1-0.4-1-1v-6c0-0.6,0.4-1,1-1h6c0.6,0,1,0.4,1,1V69z M70,59c0,0.6-0.4,1-1,1h-6c-0.6,0-1-0.4-1-1
	v-6c0-0.6,0.4-1,1-1h6c0.6,0,1,0.4,1,1V59z M70,49c0,0.6-0.4,1-1,1h-6c-0.6,0-1-0.4-1-1v-6c0-0.6,0.4-1,1-1h6c0.6,0,1,0.4,1,1V49z"
	/>
<path class="st0" d="M122.4,73.6H98.7v-49c0-0.3-0.2-0.5-0.5-0.5h-3.7c-0.3,0-0.5,0.2-0.5,0.5v52.6c0,0.3,0.2,0.5,0.5,0.5h27.9
	c0.3,0,0.5-0.2,0.5-0.5v-3.2C122.9,73.9,122.7,73.6,122.4,73.6z"/>
<path class="st0" d="M157.5,38.5l-8.4,0v-7.8c0-5.5,1.8-8.2,5.5-8.2c1.5,0,3,0.4,4.4,1c0.1,0.1,0.3,0.1,0.4,0
	c0.1-0.1,0.2-0.2,0.3-0.3l1-2.9c0.1-0.2,0-0.5-0.3-0.6c-1.9-0.8-4-1.3-5.8-1.3c-6.4,0-10,4.3-10,12v8.1l-4.8,0.3
	c-0.3,0-0.5,0.2-0.5,0.5V42c0,0.3,0.2,0.5,0.5,0.5h4.8v34.8c0,0.3,0.2,0.5,0.5,0.5h3.5c0.3,0,0.5-0.2,0.5-0.5V42.5h8.4
	c0.3,0,0.5-0.2,0.5-0.5V39C158,38.7,157.8,38.5,157.5,38.5z"/>
<path class="st0" d="M175.7,37.5c-8.3,0-17.2,7.3-17.2,20.7c0,12.1,7.5,20.6,18.2,20.6c5.7,0,9.2-1.9,12.4-3.8
	c0.2-0.1,0.3-0.4,0.2-0.7l-1.5-2.7c-0.1-0.1-0.2-0.2-0.3-0.2c-0.1,0-0.3,0-0.4,0.1c-3.2,2.3-6.4,3.3-10,3.3
	c-8.1,0-13.6-6.3-13.9-15.6h27.1c0.2,0,0.4-0.2,0.5-0.4c0.2-1,0.2-2.1,0.2-3C190.8,44.3,185.2,37.5,175.7,37.5z M163.1,55.2
	c0.9-8.1,6-13.7,12.6-13.7c6.9,0,10.7,4.9,10.8,13.7H163.1z"/>
<path class="st0" d="M216.4,38.3c-1.2-0.6-2.4-0.8-4-0.8c-4,0-7.8,2.5-10.7,7.2l-0.3-5.8c0-0.3-0.2-0.5-0.5-0.5h-3
	c-0.3,0-0.5,0.2-0.5,0.5v38.4c0,0.3,0.2,0.5,0.5,0.5h3.5c0.3,0,0.5-0.2,0.5-0.5v-26c2.4-6,6.1-9.5,10-9.5c1.4,0,2,0.2,3.3,0.6
	c0.1,0,0.3,0,0.4,0c0.1-0.1,0.2-0.2,0.2-0.3l0.8-3.2C216.7,38.7,216.6,38.5,216.4,38.3z"/>
<path class="st0" d="M248,38.5h-3.1c-0.3,0-0.5,0.2-0.5,0.5l-0.2,2.9c-3.3-2.6-6.5-4.3-11.1-4.3c-10.2,0-17.5,8.7-17.5,20.7
	c0,12.9,6.1,20.6,16.4,20.6c4.2,0,8.4-1.9,12.3-5.5l0.3,4.1c0,0.3,0.2,0.5,0.5,0.5h3c0.3,0,0.5-0.2,0.5-0.5V39
	C248.5,38.7,248.3,38.5,248,38.5z M244,46.3v22.3c-4.1,4.2-7.7,6-11.5,6c-7.6,0-12.2-6.2-12.2-16.5c0-9.3,5.7-16.6,13-16.6
	C237.1,41.6,240.3,43,244,46.3z"/>
<path class="st0" d="M286.2,38.7c-0.1-0.1-0.2-0.2-0.4-0.2h-3.6c-0.2,0-0.4,0.1-0.5,0.3l-8.2,24.1c-0.4,1.3-0.9,2.7-1.3,4.1
	c-0.6,2-1.3,4-1.9,5.8c-0.8-2-1.6-4.2-2.4-6.3c-0.5-1.3-1-2.5-1.4-3.7l-9.2-24.1c-0.1-0.2-0.3-0.3-0.5-0.3h-3.8
	c-0.2,0-0.3,0.1-0.4,0.2c-0.1,0.1-0.1,0.3,0,0.5L268.2,78l-1,3.2c-1.5,4.5-4.3,9.8-9.4,9.8c-1,0-2.2-0.3-3-0.6c-0.1,0-0.3,0-0.4,0
	c-0.1,0.1-0.2,0.2-0.3,0.3l-0.8,3.1c-0.1,0.2,0.1,0.5,0.3,0.6c1.1,0.5,2.7,0.8,4.1,0.8c5.9,0,10.5-4.5,13.4-13l15.1-43.2
	C286.4,39,286.3,38.8,286.2,38.7z"/>
<g>
	<path class="st0" d="M132.3,38.5h-3.5c-0.3,0-0.5,0.2-0.5,0.5v38.4c0,0.3,0.2,0.5,0.5,0.5h3.5c0.3,0,0.5-0.2,0.5-0.5V39
		C132.8,38.7,132.6,38.5,132.3,38.5z"/>
	<path class="st0" d="M133.5,28.7c0,0.6-0.5,1.1-1.1,1.1h-3.6c-0.6,0-1.1-0.5-1.1-1.1v-3.6c0-0.6,0.5-1.1,1.1-1.1h3.6
		c0.6,0,1.1,0.5,1.1,1.1V28.7z"/>
</g>
</svg>
